<svg version="1.1" id="Layer_1" xmlns="http://www.w3.org/2000/svg" xmlns:xlink="http://www.w3.org/1999/xlink" x="0px" y="0px"
	 width="100%" viewBox="0 0 2160 2160" enable-background="new 0 0 2160 2160" xml:space="preserve">
<path fill="#FFFFFF" opacity="1.000000" stroke="none" 
	d="
M1204.000000,2162.000000 
	C802.712891,2162.000000 402.425720,2162.000000 2.069294,2162.000000 
	C2.069294,1442.129272 2.069294,722.258545 2.069294,2.193921 
	C721.787537,2.193921 1441.575195,2.193921 2161.681396,2.193921 
	C2161.681396,721.999878 2161.681396,1441.999878 2161.681396,2162.000000 
	C1842.924316,2162.000000 1523.962158,2162.000000 1204.000000,2162.000000 
M1488.976196,212.014435 
	C1486.840210,211.095474 1484.682983,210.222427 1482.571167,209.251053 
	C1362.975708,154.242172 1237.161743,126.033760 1105.761841,122.662399 
	C1037.296387,120.905777 969.376160,126.814545 902.051941,139.694473 
	C802.199219,158.797516 707.850220,192.990906 618.941650,242.213455 
	C520.947327,296.466217 435.114746,365.894623 361.270355,450.044586 
	C302.522522,516.991150 254.039566,590.762268 215.823700,671.270935 
	C160.867661,787.045654 130.586731,909.038147 124.552513,1036.921387 
	C120.881439,1114.722534 126.468697,1191.956665 141.563202,1268.516479 
	C160.505478,1364.592285 193.281006,1455.604492 240.124847,1541.501465 
	C286.698914,1626.903687 344.990784,1703.474731 414.855927,1771.247681 
	C462.597626,1817.560059 514.489746,1858.539307 570.645874,1894.148071 
	C647.583923,1942.934570 729.853699,1979.926636 817.369080,2005.152100 
	C893.221497,2027.015991 970.639404,2039.640137 1049.562256,2041.687500 
	C1081.161865,2042.507202 1112.838745,2041.283203 1144.456055,2040.246094 
	C1181.455322,2039.032715 1218.103149,2033.975098 1254.475464,2027.384155 
	C1355.451660,2009.086182 1451.196655,1975.642212 1541.338013,1926.510132 
	C1639.657471,1872.920410 1726.064209,1804.288574 1800.581543,1720.646729 
	C1876.188477,1635.781372 1935.126343,1540.606323 1976.737305,1434.901611 
	C2026.447388,1308.622681 2048.231689,1177.564087 2042.545166,1041.880371 
	C2040.083374,983.139832 2032.563477,925.115845 2019.483765,867.877747 
	C1999.353638,779.786499 1967.408691,696.101624 1923.363525,617.145569 
	C1853.487915,491.885223 1760.322754,387.281525 1644.156738,303.167297 
	C1595.759033,268.123138 1544.334595,238.201553 1488.976196,212.014435 
M256.207153,1776.772217 
	C200.826904,1710.518799 153.659805,1638.845215 114.333824,1559.320923 
	C114.333824,1725.286011 114.333824,1888.634766 114.333824,2051.620605 
	C269.789642,2051.620605 424.574036,2051.620605 579.302368,2051.620605 
	C579.302368,2046.649780 579.302368,2042.400269 579.302368,2038.703247 
	C578.416321,2037.748291 578.053589,2037.093750 577.499329,2036.798462 
	C537.806885,2015.659180 499.575073,1992.157715 462.790771,1966.278442 
	C416.955414,1934.031494 373.873322,1898.470947 333.580841,1859.524170 
	C306.735168,1833.574951 281.253967,1806.348511 256.207153,1776.772217 
z"/>
<path fill="#000000" opacity="1.000000" stroke="none" 
	d="
M1489.673584,212.307281 
	C1544.334595,238.201553 1595.759033,268.123138 1644.156738,303.167297 
	C1760.322754,387.281525 1853.487915,491.885223 1923.363525,617.145569 
	C1967.408691,696.101624 1999.353638,779.786499 2019.483765,867.877747 
	C2032.563477,925.115845 2040.083374,983.139832 2042.545166,1041.880371 
	C2048.231689,1177.564087 2026.447388,1308.622681 1976.737305,1434.901611 
	C1935.126343,1540.606323 1876.188477,1635.781372 1800.581543,1720.646729 
	C1726.064209,1804.288574 1639.657471,1872.920410 1541.338013,1926.510132 
	C1451.196655,1975.642212 1355.451660,2009.086182 1254.475464,2027.384155 
	C1218.103149,2033.975098 1181.455322,2039.032715 1144.456055,2040.246094 
	C1112.838745,2041.283203 1081.161865,2042.507202 1049.562256,2041.687500 
	C970.639404,2039.640137 893.221497,2027.015991 817.369080,2005.152100 
	C729.853699,1979.926636 647.583923,1942.934570 570.645874,1894.148071 
	C514.489746,1858.539307 462.597626,1817.560059 414.855927,1771.247681 
	C344.990784,1703.474731 286.698914,1626.903687 240.124847,1541.501465 
	C193.281006,1455.604492 160.505478,1364.592285 141.563202,1268.516479 
	C126.468697,1191.956665 120.881439,1114.722534 124.552513,1036.921387 
	C130.586731,909.038147 160.867661,787.045654 215.823700,671.270935 
	C254.039566,590.762268 302.522522,516.991150 361.270355,450.044586 
	C435.114746,365.894623 520.947327,296.466217 618.941650,242.213455 
	C707.850220,192.990906 802.199219,158.797516 902.051941,139.694473 
	C969.376160,126.814545 1037.296387,120.905777 1105.761841,122.662399 
	C1237.161743,126.033760 1362.975708,154.242172 1482.571167,209.251053 
	C1484.682983,210.222427 1486.840210,211.095474 1489.673584,212.307281 
M440.170624,1552.777832 
	C471.931641,1596.227173 507.652924,1636.194214 547.525574,1672.280518 
	C607.636963,1726.683228 674.351074,1771.356812 747.984131,1805.510376 
	C841.199219,1848.747192 939.141785,1872.823364 1041.738525,1878.358032 
	C1102.226562,1881.621216 1162.291138,1877.898438 1221.876099,1867.508423 
	C1299.392456,1853.991943 1373.344482,1829.348755 1443.519043,1793.693848 
	C1534.516357,1747.459106 1613.561279,1685.492676 1681.849854,1609.916382 
	C1737.421387,1548.414551 1781.026123,1478.992188 1814.317993,1403.111938 
	C1836.427246,1352.719971 1853.582642,1300.784302 1863.790283,1246.569824 
	C1871.628296,1204.940674 1877.505249,1163.112793 1879.662720,1120.807007 
	C1883.539429,1044.787598 1875.848877,969.651917 1859.239746,895.616760 
	C1843.794922,826.772156 1818.003540,761.506897 1783.804199,699.753662 
	C1748.632690,636.244690 1707.014404,577.447144 1654.558716,526.795959 
	C1642.815552,515.456848 1631.578369,503.563446 1619.442993,492.666290 
	C1559.117432,438.496429 1492.548340,393.716095 1418.916992,359.468933 
	C1325.096313,315.831360 1226.443604,291.742157 1123.276245,286.484314 
	C1063.214966,283.423340 1003.437561,287.177124 944.121704,297.717041 
	C846.360413,315.088470 754.929382,349.353149 670.245911,401.056946 
	C566.589905,464.344360 481.400726,546.879211 415.042938,648.757324 
	C374.648193,710.774719 343.434906,777.056396 321.758636,847.805847 
	C294.876343,935.547241 283.401428,1025.243408 287.368896,1116.978149 
	C289.476105,1165.700928 295.674469,1213.847656 306.665161,1261.301758 
	C331.156006,1367.045288 375.292023,1463.900024 440.170624,1552.777832 
z"/>
<path fill="#000000" opacity="1.000000" stroke="none" 
	d="
M256.664917,1777.315186 
	C281.253967,1806.348511 306.735168,1833.574951 333.580841,1859.524170 
	C373.873322,1898.470947 416.955414,1934.031494 462.790771,1966.278442 
	C499.575073,1992.157715 537.806885,2015.659180 577.499329,2036.798462 
	C578.053589,2037.093750 578.416321,2037.748291 579.302368,2038.703247 
	C579.302368,2042.400269 579.302368,2046.649780 579.302368,2051.620605 
	C424.574036,2051.620605 269.789642,2051.620605 114.333824,2051.620605 
	C114.333824,1888.634766 114.333824,1725.286011 114.333824,1559.320923 
	C153.659805,1638.845215 200.826904,1710.518799 256.664917,1777.315186 
z"/>
<path fill="#FFFFFF" opacity="1.000000" stroke="none" 
	d="
M439.806213,1552.164062 
	C375.292023,1463.900024 331.156006,1367.045288 306.665161,1261.301758 
	C295.674469,1213.847656 289.476105,1165.700928 287.368896,1116.978149 
	C283.401428,1025.243408 294.876343,935.547241 321.758636,847.805847 
	C343.434906,777.056396 374.648193,710.774719 415.042938,648.757324 
	C481.400726,546.879211 566.589905,464.344360 670.245911,401.056946 
	C754.929382,349.353149 846.360413,315.088470 944.121704,297.717041 
	C1003.437561,287.177124 1063.214966,283.423340 1123.276245,286.484314 
	C1226.443604,291.742157 1325.096313,315.831360 1418.916992,359.468933 
	C1492.548340,393.716095 1559.117432,438.496429 1619.442993,492.666290 
	C1631.578369,503.563446 1642.815552,515.456848 1654.558716,526.795959 
	C1707.014404,577.447144 1748.632690,636.244690 1783.804199,699.753662 
	C1818.003540,761.506897 1843.794922,826.772156 1859.239746,895.616760 
	C1875.848877,969.651917 1883.539429,1044.787598 1879.662720,1120.807007 
	C1877.505249,1163.112793 1871.628296,1204.940674 1863.790283,1246.569824 
	C1853.582642,1300.784302 1836.427246,1352.719971 1814.317993,1403.111938 
	C1781.026123,1478.992188 1737.421387,1548.414551 1681.849854,1609.916382 
	C1613.561279,1685.492676 1534.516357,1747.459106 1443.519043,1793.693848 
	C1373.344482,1829.348755 1299.392456,1853.991943 1221.876099,1867.508423 
	C1162.291138,1877.898438 1102.226562,1881.621216 1041.738525,1878.358032 
	C939.141785,1872.823364 841.199219,1848.747192 747.984131,1805.510376 
	C674.351074,1771.356812 607.636963,1726.683228 547.525574,1672.280518 
	C507.652924,1636.194214 471.931641,1596.227173 439.806213,1552.164062 
M534.068237,687.051086 
	C515.378540,713.031433 498.658936,740.208618 483.707397,768.520508 
	C440.348328,850.624390 415.678772,938.106934 408.410919,1030.512085 
	C403.205933,1096.688843 407.824341,1162.294067 422.022247,1227.163574 
	C447.569061,1343.885620 500.796906,1446.501343 580.420471,1535.351929 
	C634.733521,1595.958862 698.237549,1644.942627 770.369629,1682.774658 
	C852.277405,1725.733765 939.424133,1750.391724 1031.485229,1757.598145 
	C1104.105469,1763.282837 1175.869263,1757.181274 1246.616699,1739.731201 
	C1335.696777,1717.759521 1416.589233,1678.571777 1490.173584,1623.941040 
	C1495.817993,1619.750732 1497.857544,1615.209961 1497.830322,1608.158691 
	C1497.560059,1538.165649 1497.671021,1468.171387 1497.650269,1398.177368 
	C1497.649414,1395.390991 1497.408081,1392.604614 1497.176025,1387.602295 
	C1451.315430,1448.432739 1397.078125,1496.338989 1332.355469,1532.109253 
	C1267.342407,1568.039551 1197.861450,1588.939087 1123.711060,1594.664917 
	C1049.888550,1600.365234 978.154785,1590.909424 908.591187,1565.834229 
	C838.695068,1540.639160 777.194397,1501.722412 724.080383,1449.812988 
	C526.453064,1256.668579 513.500427,935.017029 712.552124,727.213562 
	C806.430054,629.208008 922.386780,575.421875 1058.252319,569.770508 
	C1239.246582,562.241943 1384.111084,634.774597 1497.666504,776.473999 
	C1497.666504,771.718994 1497.666504,768.517883 1497.666504,765.316711 
	C1497.666504,695.989319 1497.500610,626.661072 1497.890503,557.335876 
	C1497.935791,549.274353 1495.106934,544.558228 1489.018555,540.096436 
	C1431.734741,498.117188 1369.994507,464.661346 1302.655518,441.746307 
	C1215.104248,411.953217 1125.215454,400.818481 1033.020874,407.440582 
	C987.029724,410.744019 941.901489,418.749207 897.579651,431.368958 
	C821.611755,452.999207 751.732361,487.148163 687.711670,533.393677 
	C628.624695,576.075256 577.680420,626.877930 534.068237,687.051086 
M1037.365967,1473.843384 
	C1044.998535,1474.518921 1052.618286,1475.448975 1060.265503,1475.830933 
	C1140.554199,1479.841187 1215.670654,1462.336670 1284.901978,1421.107544 
	C1341.188599,1387.587524 1386.453735,1342.727905 1420.402588,1286.717651 
	C1453.399658,1232.278076 1472.060059,1173.256958 1476.408813,1109.590820 
	C1481.093506,1041.001587 1469.088257,975.543518 1439.492920,913.708191 
	C1401.651245,834.643250 1343.791626,774.245911 1265.956421,733.504944 
	C1182.843018,690.001282 1094.897217,678.095825 1003.337646,696.798523 
	C917.780518,714.275085 845.773804,756.540161 788.020142,822.114136 
	C728.337830,889.877869 695.589661,969.259888 690.283936,1059.367432 
	C685.580627,1139.244873 703.418518,1214.177368 744.425354,1283.087891 
	C785.939819,1352.851440 843.712280,1405.017334 917.156677,1439.680420 
	C954.767456,1457.431152 994.354553,1468.454346 1037.365967,1473.843384 
z"/>
<path fill="#000000" opacity="1.000000" stroke="none" 
	d="
M534.506470,686.485229 
	C577.680420,626.877930 628.624695,576.075256 687.711670,533.393677 
	C751.732361,487.148163 821.611755,452.999207 897.579651,431.368958 
	C941.901489,418.749207 987.029724,410.744019 1033.020874,407.440582 
	C1125.215454,400.818481 1215.104248,411.953217 1302.655518,441.746307 
	C1369.994507,464.661346 1431.734741,498.117188 1489.018555,540.096436 
	C1495.106934,544.558228 1497.935791,549.274353 1497.890503,557.335876 
	C1497.500610,626.661072 1497.666504,695.989319 1497.666504,765.316711 
	C1497.666504,768.517883 1497.666504,771.718994 1497.666504,776.473999 
	C1384.111084,634.774597 1239.246582,562.241943 1058.252319,569.770508 
	C922.386780,575.421875 806.430054,629.208008 712.552124,727.213562 
	C513.500427,935.017029 526.453064,1256.668579 724.080383,1449.812988 
	C777.194397,1501.722412 838.695068,1540.639160 908.591187,1565.834229 
	C978.154785,1590.909424 1049.888550,1600.365234 1123.711060,1594.664917 
	C1197.861450,1588.939087 1267.342407,1568.039551 1332.355469,1532.109253 
	C1397.078125,1496.338989 1451.315430,1448.432739 1497.176025,1387.602295 
	C1497.408081,1392.604614 1497.649414,1395.390991 1497.650269,1398.177368 
	C1497.671021,1468.171387 1497.560059,1538.165649 1497.830322,1608.158691 
	C1497.857544,1615.209961 1495.817993,1619.750732 1490.173584,1623.941040 
	C1416.589233,1678.571777 1335.696777,1717.759521 1246.616699,1739.731201 
	C1175.869263,1757.181274 1104.105469,1763.282837 1031.485229,1757.598145 
	C939.424133,1750.391724 852.277405,1725.733765 770.369629,1682.774658 
	C698.237549,1644.942627 634.733521,1595.958862 580.420471,1535.351929 
	C500.796906,1446.501343 447.569061,1343.885620 422.022247,1227.163574 
	C407.824341,1162.294067 403.205933,1096.688843 408.410919,1030.512085 
	C415.678772,938.106934 440.348328,850.624390 483.707397,768.520508 
	C498.658936,740.208618 515.378540,713.031433 534.506470,686.485229 
z"/>
<path fill="#000000" opacity="1.000000" stroke="none" 
	d="
M1036.475342,1473.759277 
	C994.354553,1468.454346 954.767456,1457.431152 917.156677,1439.680420 
	C843.712280,1405.017334 785.939819,1352.851440 744.425354,1283.087891 
	C703.418518,1214.177368 685.580627,1139.244873 690.283936,1059.367432 
	C695.589661,969.259888 728.337830,889.877869 788.020142,822.114136 
	C845.773804,756.540161 917.780518,714.275085 1003.337646,696.798523 
	C1094.897217,678.095825 1182.843018,690.001282 1265.956421,733.504944 
	C1343.791626,774.245911 1401.651245,834.643250 1439.492920,913.708191 
	C1469.088257,975.543518 1481.093506,1041.001587 1476.408813,1109.590820 
	C1472.060059,1173.256958 1453.399658,1232.278076 1420.402588,1286.717651 
	C1386.453735,1342.727905 1341.188599,1387.587524 1284.901978,1421.107544 
	C1215.670654,1462.336670 1140.554199,1479.841187 1060.265503,1475.830933 
	C1052.618286,1475.448975 1044.998535,1474.518921 1036.475342,1473.759277 
M1175.889893,1293.006836 
	C1209.419189,1278.246460 1238.249756,1256.903198 1261.050415,1228.396362 
	C1304.021362,1174.671387 1321.178955,1113.505615 1310.173218,1045.155884 
	C1300.991211,988.132141 1273.572266,940.995911 1229.045654,904.820923 
	C1175.946411,861.681396 1114.793457,844.928955 1046.813477,855.727844 
	C989.427551,864.843750 942.121155,892.397400 905.630981,937.222656 
	C864.059082,988.290222 846.469910,1047.311890 855.935791,1112.671143 
	C868.564087,1199.865234 916.954102,1261.239868 997.644714,1295.435181 
	C1056.172119,1320.238037 1115.797363,1318.058350 1175.889893,1293.006836 
z"/>
<path fill="#FFFFFF" opacity="1.000000" stroke="none" 
	d="
M1175.207397,1293.341797 
	C1115.797363,1318.058350 1056.172119,1320.238037 997.644714,1295.435181 
	C916.954102,1261.239868 868.564087,1199.865234 855.935791,1112.671143 
	C846.469910,1047.311890 864.059082,988.290222 905.630981,937.222656 
	C942.121155,892.397400 989.427551,864.843750 1046.813477,855.727844 
	C1114.793457,844.928955 1175.946411,861.681396 1229.045654,904.820923 
	C1273.572266,940.995911 1300.991211,988.132141 1310.173218,1045.155884 
	C1321.178955,1113.505615 1304.021362,1174.671387 1261.050415,1228.396362 
	C1238.249756,1256.903198 1209.419189,1278.246460 1175.207397,1293.341797 
z"/>
</svg>